<svg width="35" height="35" viewBox="0 0 25 25" fill="none"
xmlns="http://www.w3.org/2000/svg">
<path
    d="M24.9878 12.4958C24.9878 14.2484 24.9525 16.0059 24.9979 17.7584C25.0735 20.8606 23.1234 23.2577 20.6392 24.3254C19.6415 24.7534 18.5935 24.98 17.5101 24.98C14.1189 24.9851 10.7227 25.0304 7.33157 24.9649C4.77686 24.9146 2.67564 23.8469 1.16902 21.7419C0.377916 20.634 0 19.375 0 18.0102C0 14.3994 0 10.7937 0 7.18286C0 4.23681 1.43608 2.17709 3.98575 0.837516C5.09431 0.258377 6.2986 0.0116136 7.55328 0.00657762C10.8437 0.00657762 14.1391 -0.0135663 17.4295 0.0166496C19.9842 0.0367935 22.1156 1.01378 23.6878 3.06846C24.5645 4.21666 24.9878 5.53609 24.9878 6.98646C24.9878 8.81956 24.9878 10.6577 24.9878 12.4958ZM1.85935 12.4958C1.85935 14.344 1.85935 16.1872 1.85935 18.0354C1.85935 18.8613 2.05082 19.6369 2.47913 20.3369C3.6028 22.175 5.3009 23.0714 7.40715 23.1067C10.7882 23.157 14.1744 23.1268 17.5605 23.1167C18.3919 23.1167 19.1981 22.9455 19.9489 22.5879C21.9947 21.611 23.1385 20.0548 23.1285 17.7181C23.1083 14.1426 23.1234 10.567 23.1234 6.99149C23.1234 5.97926 22.8362 5.05264 22.2366 4.23681C21.0776 2.67062 19.4753 1.90011 17.5605 1.87997C14.1844 1.83968 10.8084 1.86486 7.43235 1.86989C6.71179 1.86989 6.01642 2.01594 5.34121 2.26774C3.4869 2.95767 1.76361 4.70515 1.84423 7.27854C1.9047 9.021 1.85935 10.7584 1.85935 12.4958Z"
    fill="white" />
<path
    d="M12.5218 17.8338C9.27175 17.8338 6.65153 15.2453 6.64649 12.0222C6.64145 8.84955 9.28182 6.25098 12.5117 6.25098C15.7517 6.24595 18.382 8.83948 18.3871 12.0373C18.3871 15.2302 15.7618 17.8287 12.5218 17.8338ZM12.5218 15.9704C14.7339 15.9704 16.5277 14.2028 16.5227 12.0273C16.5177 9.87186 14.7238 8.10926 12.5218 8.10926C10.3098 8.10926 8.50584 9.86682 8.50584 12.0373C8.51088 14.2129 10.3098 15.9755 12.5218 15.9704Z"
    fill="white" />
<path
    d="M19.0669 4.48828C19.7472 4.48828 20.3014 5.06742 20.3014 5.77749C20.2964 6.48757 19.7371 7.06167 19.0568 7.05664C18.3867 7.0516 17.8374 6.4775 17.8374 5.78253C17.8324 5.07246 18.3867 4.48828 19.0669 4.48828Z"
    fill="white" />
</svg>
